# xmcd
#
# Track frame offsets:
#	150
#	13687
#	35452
#	51465
#	66585
#	79522
#	96247
#	113225
#	127087
#	140185
#
# Disc length: 2180 seconds
#
# Revision: 2
# Processed by: cddbd v1.5.1PL0 Copyright (c) Steve Scherf et al.
# Submitted via: audiograbber 1.83.01
#
DISCID=9508820a
DTITLE=Rick TREVINO - In My Dreams
DYEAR=2003
DGENRE=Country
TTITLE0=Overnight Success
TTITLE1=In My Dreams
TTITLE2=She'll Never Know
TTITLE3=Downside Of Love
TTITLE4=Beautiful Day
TTITLE5=Olivia
TTITLE6=Are We Almost There
TTITLE7=Heartaches
TTITLE8=So Over
TTITLE9=Have You Ever Really Loved A Woman
EXTD=
EXTT0=
EXTT1=
EXTT2=
EXTT3=
EXTT4=
EXTT5=
EXTT6=
EXTT7=
EXTT8=
EXTT9=
PLAYORDER=
